<?xml version="1.0" ?><!DOCTYPE svg  PUBLIC '-//W3C//DTD SVG 1.1//EN'  'http://www.w3.org/Graphics/SVG/1.1/DTD/svg11.dtd'><svg enable-background="new 0 0 256 256" height="60px" id="Layer_1" version="1.1" viewBox="0 0 256 256" width="256px" xml:space="preserve" xmlns="http://www.w3.org/2000/svg" xmlns:xlink="http://www.w3.org/1999/xlink"><path d="M128,52.688c3.534,0,6,2.865,6,6.4v122.034l45.956-47.141c2.463-2.538,6.616-2.597,9.149-0.138  c1.295,1.256,1.995,2.925,1.995,4.594c0,1.606-0.576,3.216-1.782,4.456l-56.737,58.466c-1.206,1.244-2.855,1.943-4.587,1.943  s-3.385-0.699-4.591-1.943L66.66,142.894c-2.459-2.528-2.401-6.584,0.139-9.05c2.534-2.459,6.789-2.4,9.251,0.138L122,181.122  V59.088C122,55.553,124.466,52.688,128,52.688z M128,0C57.422,0,0,57.422,0,128s57.422,128,128,128s128-57.422,128-128  S198.578,0,128,0z M128,12.8c63.521,0,115.2,51.679,115.2,115.2S191.521,243.2,128,243.2S12.8,191.521,12.8,128  S64.479,12.8,128,12.8z"/></svg>
