<svg width="37" height="26" viewBox="0 0 37 26" fill="none" xmlns="http://www.w3.org/2000/svg">
<g opacity="0.38">
<rect y="5" width="34" height="14" rx="7" fill="#80DEEA"/>
<g filter="url(#filter0_ddd_36_579)">
<path fill-rule="evenodd" clip-rule="evenodd" d="M24 22C29.5228 22 34 17.5228 34 12C34 6.47715 29.5228 2 24 2C18.4772 2 14 6.47715 14 12C14 17.5228 18.4772 22 24 22Z" fill="#212121" fill-opacity="0.08"/>
</g>
<path fill-rule="evenodd" clip-rule="evenodd" d="M24 22C29.5228 22 34 17.5228 34 12C34 6.47715 29.5228 2 24 2C18.4772 2 14 6.47715 14 12C14 17.5228 18.4772 22 24 22Z" fill="#00BCD4"/>
</g>
<defs>
<filter id="filter0_ddd_36_579" x="11" y="0" width="26" height="26" filterUnits="userSpaceOnUse" color-interpolation-filters="sRGB">
<feFlood flood-opacity="0" result="BackgroundImageFix"/>
<feColorMatrix in="SourceAlpha" type="matrix" values="0 0 0 0 0 0 0 0 0 0 0 0 0 0 0 0 0 0 127 0" result="hardAlpha"/>
<feOffset dy="1"/>
<feGaussianBlur stdDeviation="1.5"/>
<feColorMatrix type="matrix" values="0 0 0 0 0 0 0 0 0 0 0 0 0 0 0 0 0 0 0.2 0"/>
<feBlend mode="normal" in2="BackgroundImageFix" result="effect1_dropShadow_36_579"/>
<feColorMatrix in="SourceAlpha" type="matrix" values="0 0 0 0 0 0 0 0 0 0 0 0 0 0 0 0 0 0 127 0" result="hardAlpha"/>
<feOffset dy="2"/>
<feGaussianBlur stdDeviation="0.5"/>
<feColorMatrix type="matrix" values="0 0 0 0 0 0 0 0 0 0 0 0 0 0 0 0 0 0 0.12 0"/>
<feBlend mode="normal" in2="effect1_dropShadow_36_579" result="effect2_dropShadow_36_579"/>
<feColorMatrix in="SourceAlpha" type="matrix" values="0 0 0 0 0 0 0 0 0 0 0 0 0 0 0 0 0 0 127 0" result="hardAlpha"/>
<feOffset dy="1"/>
<feGaussianBlur stdDeviation="0.5"/>
<feColorMatrix type="matrix" values="0 0 0 0 0 0 0 0 0 0 0 0 0 0 0 0 0 0 0.14 0"/>
<feBlend mode="normal" in2="effect2_dropShadow_36_579" result="effect3_dropShadow_36_579"/>
<feBlend mode="normal" in="SourceGraphic" in2="effect3_dropShadow_36_579" result="shape"/>
</filter>
</defs>
</svg>
