<?xml version="1.0" encoding="UTF-8" standalone="no"?>
<!DOCTYPE svg PUBLIC "-//W3C//DTD SVG 1.1//EN"
 "http://www.w3.org/Graphics/SVG/1.1/DTD/svg11.dtd">
<!-- Generated by graphviz version 2.50.0 (20211204.2007)
 -->
<!-- Title: dependency&#45;cruiser output Pages: 1 -->
<svg width="452pt" height="274pt"
 viewBox="0.00 0.00 452.00 274.00" xmlns="http://www.w3.org/2000/svg" xmlns:xlink="http://www.w3.org/1999/xlink">
<g id="graph0" class="graph" transform="scale(1 1) rotate(0) translate(4 270)">
<title>dependency&#45;cruiser output</title>
<polygon fill="white" stroke="transparent" points="-4,4 -4,-270 448,-270 448,4 -4,4"/>
<g id="clust1" class="cluster">
<title>cluster_src</title>
<path fill="#ffffff" stroke="black" stroke-width="2" d="M20,-8C20,-8 424,-8 424,-8 430,-8 436,-14 436,-20 436,-20 436,-246 436,-246 436,-252 430,-258 424,-258 424,-258 20,-258 20,-258 14,-258 8,-252 8,-246 8,-246 8,-20 8,-20 8,-14 14,-8 20,-8"/>
<text text-anchor="middle" x="222" y="-246.8" font-family="Helvetica,sans-Serif" font-weight="bold" font-size="9.00">src</text>
</g>
<g id="clust2" class="cluster">
<title>cluster_src/css</title>
<path fill="#ffffff" stroke="black" stroke-width="2" d="M90,-16C90,-16 137,-16 137,-16 143,-16 149,-22 149,-28 149,-28 149,-56 149,-56 149,-62 143,-68 137,-68 137,-68 90,-68 90,-68 84,-68 78,-62 78,-56 78,-56 78,-28 78,-28 78,-22 84,-16 90,-16"/>
<text text-anchor="middle" x="113.5" y="-56.8" font-family="Helvetica,sans-Serif" font-weight="bold" font-size="9.00">css</text>
</g>
<g id="clust3" class="cluster">
<title>cluster_src/js</title>
<path fill="#ffffff" stroke="black" stroke-width="2" d="M90.5,-76C90.5,-76 416,-76 416,-76 422,-76 428,-82 428,-88 428,-88 428,-220 428,-220 428,-226 422,-232 416,-232 416,-232 90.5,-232 90.5,-232 84.5,-232 78.5,-226 78.5,-220 78.5,-220 78.5,-88 78.5,-88 78.5,-82 84.5,-76 90.5,-76"/>
<text text-anchor="middle" x="253.25" y="-220.8" font-family="Helvetica,sans-Serif" font-weight="bold" font-size="9.00">js</text>
</g>
<g id="clust4" class="cluster">
<title>cluster_src/js/utils</title>
<path fill="#ffffff" stroke="black" stroke-width="2" d="M351,-98C351,-98 408,-98 408,-98 414,-98 420,-104 420,-110 420,-110 420,-168 420,-168 420,-174 414,-180 408,-180 408,-180 351,-180 351,-180 345,-180 339,-174 339,-168 339,-168 339,-110 339,-110 339,-104 345,-98 351,-98"/>
<text text-anchor="middle" x="379.5" y="-168.8" font-family="Helvetica,sans-Serif" font-weight="bold" font-size="9.00">utils</text>
</g>
<g id="clust5" class="cluster">
<title>cluster_src/js/view</title>
<path fill="#ffffff" stroke="black" stroke-width="2" d="M241,-124C241,-124 319,-124 319,-124 325,-124 331,-130 331,-136 331,-136 331,-194 331,-194 331,-200 325,-206 319,-206 319,-206 241,-206 241,-206 235,-206 229,-200 229,-194 229,-194 229,-136 229,-136 229,-130 235,-124 241,-124"/>
<text text-anchor="middle" x="280" y="-194.8" font-family="Helvetica,sans-Serif" font-weight="bold" font-size="9.00">view</text>
</g>
<!-- src/css/index.css -->
<g id="node1" class="node">
<title>src/css/index.css</title>
<g id="a_node1"><a xlink:href="src/css/index.css" xlink:title="index.css">
<path fill="#ffffcc" stroke="black" d="M135,-42C135,-42 92,-42 92,-42 89,-42 86,-39 86,-36 86,-36 86,-30 86,-30 86,-27 89,-24 92,-24 92,-24 135,-24 135,-24 138,-24 141,-27 141,-30 141,-30 141,-36 141,-36 141,-39 138,-42 135,-42"/>
<text text-anchor="start" x="94" y="-30.8" font-family="Helvetica,sans-Serif" font-size="9.00">index.css</text>
</a>
</g>
</g>
<!-- src/index.js -->
<g id="node2" class="node">
<title>src/index.js</title>
<g id="a_node2"><a xlink:href="src/index.js" xlink:title="index.js">
<path fill="#ffffcc" stroke="black" d="M64,-77C64,-77 22,-77 22,-77 19,-77 16,-74 16,-71 16,-71 16,-65 16,-65 16,-62 19,-59 22,-59 22,-59 64,-59 64,-59 67,-59 70,-62 70,-65 70,-65 70,-71 70,-71 70,-74 67,-77 64,-77"/>
<text text-anchor="start" x="27" y="-65.8" font-family="Helvetica,sans-Serif" font-size="9.00">index.js</text>
</a>
</g>
</g>
<!-- src/index.js&#45;&gt;src/css/index.css -->
<g id="edge1" class="edge">
<title>src/index.js&#45;&gt;src/css/index.css</title>
<path fill="none" stroke="#000000" stroke-width="2" stroke-opacity="0.200000" d="M61.64,-58.99C70.04,-54.69 80.21,-49.5 89.23,-44.89"/>
<polygon fill="#000000" fill-opacity="0.200000" stroke="#000000" stroke-width="2" stroke-opacity="0.200000" points="90.29,-46.7 94.68,-42.1 88.38,-42.96 90.29,-46.7"/>
</g>
<!-- src/js/app.js -->
<g id="node3" class="node">
<title>src/js/app.js</title>
<g id="a_node3"><a xlink:href="src/js/app.js" xlink:title="app.js">
<path fill="#ffffcc" stroke="black" d="M134.5,-113C134.5,-113 92.5,-113 92.5,-113 89.5,-113 86.5,-110 86.5,-107 86.5,-107 86.5,-101 86.5,-101 86.5,-98 89.5,-95 92.5,-95 92.5,-95 134.5,-95 134.5,-95 137.5,-95 140.5,-98 140.5,-101 140.5,-101 140.5,-107 140.5,-107 140.5,-110 137.5,-113 134.5,-113"/>
<text text-anchor="start" x="101" y="-101.8" font-family="Helvetica,sans-Serif" font-size="9.00">app.js</text>
</a>
</g>
</g>
<!-- src/index.js&#45;&gt;src/js/app.js -->
<g id="edge2" class="edge">
<title>src/index.js&#45;&gt;src/js/app.js</title>
<path fill="none" stroke="#000000" stroke-width="2" stroke-opacity="0.200000" d="M61.29,-77.08C69.82,-81.57 80.23,-87.04 89.44,-91.88"/>
<polygon fill="#000000" fill-opacity="0.200000" stroke="#000000" stroke-width="2" stroke-opacity="0.200000" points="88.69,-93.86 94.98,-94.79 90.65,-90.14 88.69,-93.86"/>
</g>
<!-- src/js/controller.js -->
<g id="node4" class="node">
<title>src/js/controller.js</title>
<g id="a_node4"><a xlink:href="src/js/controller.js" xlink:title="controller.js">
<path fill="#ffffcc" stroke="black" d="M215,-124C215,-124 163,-124 163,-124 160,-124 157,-121 157,-118 157,-118 157,-112 157,-112 157,-109 160,-106 163,-106 163,-106 215,-106 215,-106 218,-106 221,-109 221,-112 221,-112 221,-118 221,-118 221,-121 218,-124 215,-124"/>
<text text-anchor="start" x="165" y="-112.8" font-family="Helvetica,sans-Serif" font-size="9.00">controller.js</text>
</a>
</g>
</g>
<!-- src/js/app.js&#45;&gt;src/js/controller.js -->
<g id="edge3" class="edge">
<title>src/js/app.js&#45;&gt;src/js/controller.js</title>
<path fill="none" stroke="#000000" stroke-width="2" stroke-opacity="0.200000" d="M140.62,-107.91C143.92,-108.4 147.35,-108.92 150.78,-109.43"/>
<polygon fill="#000000" fill-opacity="0.200000" stroke="#000000" stroke-width="2" stroke-opacity="0.200000" points="150.69,-111.54 156.94,-110.35 151.31,-107.39 150.69,-111.54"/>
</g>
<!-- src/js/model.js -->
<g id="node5" class="node">
<title>src/js/model.js</title>
<g id="a_node5"><a xlink:href="src/js/model.js" xlink:title="model.js">
<path fill="#ffffcc" stroke="black" d="M301,-102C301,-102 259,-102 259,-102 256,-102 253,-99 253,-96 253,-96 253,-90 253,-90 253,-87 256,-84 259,-84 259,-84 301,-84 301,-84 304,-84 307,-87 307,-90 307,-90 307,-96 307,-96 307,-99 304,-102 301,-102"/>
<text text-anchor="start" x="262.5" y="-90.8" font-family="Helvetica,sans-Serif" font-size="9.00">model.js</text>
</a>
</g>
</g>
<!-- src/js/controller.js&#45;&gt;src/js/model.js -->
<g id="edge4" class="edge">
<title>src/js/controller.js&#45;&gt;src/js/model.js</title>
<path fill="none" stroke="#000000" stroke-width="2" stroke-opacity="0.200000" d="M221.13,-107.31C229.36,-105.27 238.26,-103.07 246.55,-101.02"/>
<polygon fill="#000000" fill-opacity="0.200000" stroke="#000000" stroke-width="2" stroke-opacity="0.200000" points="247.44,-102.96 252.76,-99.49 246.43,-98.89 247.44,-102.96"/>
</g>
<!-- src/js/utils/validation.js -->
<g id="node6" class="node">
<title>src/js/utils/validation.js</title>
<g id="a_node6"><a xlink:href="src/js/utils/validation.js" xlink:title="validation.js">
<path fill="#ffffcc" stroke="black" d="M406,-124C406,-124 353,-124 353,-124 350,-124 347,-121 347,-118 347,-118 347,-112 347,-112 347,-109 350,-106 353,-106 353,-106 406,-106 406,-106 409,-106 412,-109 412,-112 412,-112 412,-118 412,-118 412,-121 409,-124 406,-124"/>
<text text-anchor="start" x="355" y="-112.8" font-family="Helvetica,sans-Serif" font-size="9.00">validation.js</text>
</a>
</g>
</g>
<!-- src/js/controller.js&#45;&gt;src/js/utils/validation.js -->
<g id="edge5" class="edge">
<title>src/js/controller.js&#45;&gt;src/js/utils/validation.js</title>
<path fill="none" stroke="#000000" stroke-width="2" stroke-opacity="0.200000" d="M221.13,-115C253.81,-115 305.23,-115 340.34,-115"/>
<polygon fill="#000000" fill-opacity="0.200000" stroke="#000000" stroke-width="2" stroke-opacity="0.200000" points="340.7,-117.1 346.7,-115 340.7,-112.9 340.7,-117.1"/>
</g>
<!-- src/js/view/LottoList.js -->
<g id="node7" class="node">
<title>src/js/view/LottoList.js</title>
<g id="a_node7"><a xlink:href="src/js/view/LottoList.js" xlink:title="LottoList.js">
<path fill="#ffffcc" stroke="black" d="M304,-180C304,-180 256,-180 256,-180 253,-180 250,-177 250,-174 250,-174 250,-168 250,-168 250,-165 253,-162 256,-162 256,-162 304,-162 304,-162 307,-162 310,-165 310,-168 310,-168 310,-174 310,-174 310,-177 307,-180 304,-180"/>
<text text-anchor="start" x="258" y="-168.8" font-family="Helvetica,sans-Serif" font-size="9.00">LottoList.js</text>
</a>
</g>
</g>
<!-- src/js/controller.js&#45;&gt;src/js/view/LottoList.js -->
<g id="edge6" class="edge">
<title>src/js/controller.js&#45;&gt;src/js/view/LottoList.js</title>
<path fill="none" stroke="#000000" stroke-width="2" stroke-opacity="0.200000" d="M196.43,-124.15C203.42,-133.46 215.44,-147.67 229,-156 233.65,-158.86 238.88,-161.2 244.16,-163.11"/>
<polygon fill="#000000" fill-opacity="0.200000" stroke="#000000" stroke-width="2" stroke-opacity="0.200000" points="243.52,-165.11 249.88,-165.02 244.85,-161.13 243.52,-165.11"/>
</g>
<!-- src/js/view/PurchaseForm.js -->
<g id="node8" class="node">
<title>src/js/view/PurchaseForm.js</title>
<g id="a_node8"><a xlink:href="src/js/view/PurchaseForm.js" xlink:title="PurchaseForm.js">
<path fill="#ffffcc" stroke="black" d="M317,-150C317,-150 243,-150 243,-150 240,-150 237,-147 237,-144 237,-144 237,-138 237,-138 237,-135 240,-132 243,-132 243,-132 317,-132 317,-132 320,-132 323,-135 323,-138 323,-138 323,-144 323,-144 323,-147 320,-150 317,-150"/>
<text text-anchor="start" x="245" y="-138.8" font-family="Helvetica,sans-Serif" font-size="9.00">PurchaseForm.js</text>
</a>
</g>
</g>
<!-- src/js/controller.js&#45;&gt;src/js/view/PurchaseForm.js -->
<g id="edge7" class="edge">
<title>src/js/controller.js&#45;&gt;src/js/view/PurchaseForm.js</title>
<path fill="none" stroke="#000000" stroke-width="2" stroke-opacity="0.200000" d="M216.36,-124.05C220.57,-125.42 224.89,-126.78 229,-128 231.71,-128.8 234.5,-129.6 237.33,-130.39"/>
<polygon fill="#000000" fill-opacity="0.200000" stroke="#000000" stroke-width="2" stroke-opacity="0.200000" points="236.8,-132.42 243.14,-131.99 237.91,-128.37 236.8,-132.42"/>
</g>
<!-- src/js/utils/dom.js -->
<g id="node9" class="node">
<title>src/js/utils/dom.js</title>
<g id="a_node9"><a xlink:href="src/js/utils/dom.js" xlink:title="dom.js">
<path fill="#ffffcc" stroke="black" d="M400.5,-154C400.5,-154 358.5,-154 358.5,-154 355.5,-154 352.5,-151 352.5,-148 352.5,-148 352.5,-142 352.5,-142 352.5,-139 355.5,-136 358.5,-136 358.5,-136 400.5,-136 400.5,-136 403.5,-136 406.5,-139 406.5,-142 406.5,-142 406.5,-148 406.5,-148 406.5,-151 403.5,-154 400.5,-154"/>
<text text-anchor="start" x="365.5" y="-142.8" font-family="Helvetica,sans-Serif" font-size="9.00">dom.js</text>
</a>
</g>
</g>
<!-- src/js/view/LottoList.js&#45;&gt;src/js/utils/dom.js -->
<g id="edge8" class="edge">
<title>src/js/view/LottoList.js&#45;&gt;src/js/utils/dom.js</title>
<path fill="none" stroke="#000000" stroke-width="2" stroke-opacity="0.200000" d="M310.25,-163.2C321.62,-160.17 334.68,-156.68 346.32,-153.58"/>
<polygon fill="#000000" fill-opacity="0.200000" stroke="#000000" stroke-width="2" stroke-opacity="0.200000" points="347,-155.57 352.25,-152 345.92,-151.52 347,-155.57"/>
</g>
<!-- src/js/view/PurchaseForm.js&#45;&gt;src/js/utils/dom.js -->
<g id="edge9" class="edge">
<title>src/js/view/PurchaseForm.js&#45;&gt;src/js/utils/dom.js</title>
<path fill="none" stroke="#000000" stroke-width="2" stroke-opacity="0.200000" d="M323.2,-142.73C330.92,-143.05 338.86,-143.37 346.23,-143.68"/>
<polygon fill="#000000" fill-opacity="0.200000" stroke="#000000" stroke-width="2" stroke-opacity="0.200000" points="346.19,-145.78 352.28,-143.92 346.37,-141.58 346.19,-145.78"/>
</g>
</g>
</svg>
